<?xml version="1.0" encoding="utf-8"?>
<!-- Generator: Adobe Illustrator 26.0.1, SVG Export Plug-In . SVG Version: 6.00 Build 0)  -->
<svg version="1.1" id="Layer_1" xmlns="http://www.w3.org/2000/svg" xmlns:xlink="http://www.w3.org/1999/xlink" x="0px" y="0px"
	 viewBox="295.014 0 2347.734 2000" enable-background="new 295.014 0 2347.734 2000" xml:space="preserve">
<g id="_1563007008_00000039114217776416224420000016562603551867502752_">
	<g>
		<g>
			<path fill="#FAFAFA" d="M948.063,1804.593H609.241l392.711-680.166h732.249l-65.06-134.447H963.384
				c-26.674,0-49.562,15.5-60.556,38.028l-463.716,803.078c-8.653,11.354-13.699,25.411-13.699,40.729
				c0,5.587,0.722,10.994,1.983,16.22c4.146,17.301,14.958,32.982,31.719,42.535c13.339,7.748,28.117,10.271,42.355,8.47h475.97
				c26.134,3.424,52.988-8.651,66.863-32.801l213.026-368.738h658.178l-65.06-134.449H1218.76c-26.672,0-49.742,15.32-60.554,37.848
				L948.063,1804.593z"/>
			<path fill="#FAFAFA" d="M1547.309,79.49 M1344.916,1804.593l-68.304,134.449h1230.752c37.123,0,67.223-30.098,67.223-67.226
				c0-13.875-4.146-26.852-11.354-37.666L1558.663,94.448c-2.523-4.507-5.767-8.831-9.371-12.797l-0.36-0.36l-0.72-0.9l-0.182-0.18
				l-0.9-0.72l-0.903-0.903l-0.18-0.36c-5.044-4.504-10.631-8.47-16.761-11.354l-1.26-0.54c-8.47-3.964-17.481-5.947-26.314-5.947
				h-0.36h-1.08h-1.081h-0.36c-8.833,0-17.844,1.983-26.494,5.947l-1.081,0.54c-6.127,2.883-11.714,6.85-16.761,11.354l-0.36,0.36
				l-0.72,0.903h-0.182l-0.72,0.72l-0.18,0.18l-0.723,0.9l-0.36,0.36c-3.604,3.966-6.847,8.29-9.371,12.797l-414.516,715.491
				h154.994l317.915-548.423l891.029,1543.078H1344.916z"/>
		</g>
	</g>
</g>
</svg>
