<?xml version="1.0" encoding="utf-8"?>
<!-- Generator: Adobe Illustrator 26.0.1, SVG Export Plug-In . SVG Version: 6.00 Build 0)  -->
<svg version="1.1" id="Layer_1" xmlns="http://www.w3.org/2000/svg" xmlns:xlink="http://www.w3.org/1999/xlink" x="0px" y="0px"
	 viewBox="0 0 3000 2000" enable-background="new 0 0 3000 2000" xml:space="preserve">
<g id="_1563007008_00000039114217776416224420000016562603551867502752_">
	<g>
		<path d="M1165.896,1487.045h-205.1l237.72-411.725h443.253l-39.383-81.385H1175.17c-16.147,0-30.002,9.383-36.656,23.02
			l-280.701,486.128c-5.238,6.873-8.293,15.382-8.293,24.655c0,3.382,0.437,6.655,1.2,9.819c2.51,10.473,9.055,19.965,19.2,25.748
			c8.075,4.69,17.02,6.217,25.638,5.127h288.119c15.82,2.072,32.075-5.236,40.474-19.856l128.951-223.208h398.416l-39.383-81.386
			h-382.379c-16.145,0-30.11,9.274-36.655,22.911L1165.896,1487.045z"/>
		<path d="M1528.637,442.787 M1406.123,1487.045l-41.346,81.386h745.012c22.472,0,40.692-18.219,40.692-40.694
			c0-8.399-2.51-16.254-6.873-22.8L1535.51,451.841c-1.527-2.728-3.491-5.346-5.672-7.746l-0.218-0.218l-0.436-0.545l-0.11-0.109
			l-0.545-0.436l-0.547-0.546l-0.109-0.218c-3.054-2.727-6.436-5.127-10.146-6.873l-0.763-0.327c-5.127-2.4-10.582-3.6-15.929-3.6
			h-0.218h-0.654h-0.654h-0.218c-5.347,0-10.801,1.201-16.038,3.6l-0.654,0.327c-3.709,1.745-7.091,4.146-10.146,6.873l-0.218,0.218
			l-0.436,0.546h-0.11l-0.436,0.436l-0.109,0.109l-0.438,0.545l-0.218,0.218c-2.181,2.401-4.145,5.018-5.672,7.746L1213.897,884.95
			h93.822l192.444-331.977l539.367,934.072H1406.123z"/>
	</g>
</g>
</svg>
