<?xml version="1.0" encoding="utf-8"?>
<!-- Generator: Adobe Illustrator 26.0.1, SVG Export Plug-In . SVG Version: 6.00 Build 0)  -->
<svg version="1.1" id="Layer_1" xmlns="http://www.w3.org/2000/svg" xmlns:xlink="http://www.w3.org/1999/xlink" x="0px" y="0px"
	 viewBox="310.161 0 2385.6 2000" enable-background="new 310.161 0 2385.6 2000" xml:space="preserve">
<g id="_1563007008_00000039114217776416224420000016562603551867502752_">
	<g>
		<g>
			<path d="M936.394,1821.605H590.408l401.014-694.547h747.731l-66.436-137.289H952.038c-27.238,0-50.61,15.828-61.836,38.832
				l-473.52,820.058c-8.836,11.594-13.989,25.949-13.989,41.59c0,5.705,0.738,11.226,2.025,16.564
				c4.234,17.667,15.274,33.679,32.389,43.434c13.621,7.911,28.712,10.488,43.25,8.649H966.39
				c26.687,3.496,54.108-8.833,68.277-33.495l217.53-376.534h672.094l-66.436-137.292h-645.042
				c-27.236,0-50.794,15.644-61.834,38.648L936.394,1821.605z"/>
			<path d="M1548.309,60.027 M1341.637,1821.605l-69.748,137.292h1256.773c37.908,0,68.645-30.734,68.645-68.647
				c0-14.168-4.234-27.42-11.594-38.462L1559.903,75.302c-2.577-4.602-5.889-9.017-9.569-13.067l-0.368-0.368l-0.735-0.919
				l-0.186-0.184l-0.919-0.736l-0.922-0.922l-0.184-0.368c-5.151-4.599-10.856-8.65-17.115-11.594l-1.287-0.552
				c-8.65-4.048-17.851-6.073-26.87-6.073h-0.368h-1.103h-1.103h-0.368c-9.02,0-18.221,2.025-27.054,6.073l-1.104,0.552
				c-6.257,2.944-11.962,6.994-17.115,11.594l-0.368,0.368l-0.735,0.922h-0.186l-0.735,0.736l-0.184,0.184l-0.738,0.919
				l-0.368,0.368c-3.68,4.05-6.992,8.466-9.569,13.067l-423.28,730.618h158.271l324.637-560.018l909.868,1575.703H1341.637z"/>
		</g>
	</g>
</g>
</svg>
